<?xml version="1.0" encoding="UTF-8"?>
<svg version="1.1" xmlns="http://www.w3.org/2000/svg" width="500" height="500">
<rect x="110" y="130" width="280" height="260" fill="white" />
<path d="M0 0 C2.02726237 -0.00543328 4.05452078 -0.01256264 6.08177185 -0.02124023 C11.54043537 -0.03933198 16.99879337 -0.0324653 22.4574616 -0.01972389 C28.19727035 -0.00952373 33.93705473 -0.01900878 39.67686462 -0.02526855 C49.31066536 -0.03252407 58.944343 -0.02301183 68.578125 -0.00390625 C79.68338857 0.01786454 90.78835835 0.010801 101.89361483 -0.01121187 C111.46524333 -0.02941837 121.03678388 -0.03189878 130.60842413 -0.0214572 C136.30907242 -0.01525186 142.00958304 -0.0143047 147.71022224 -0.02760315 C153.07110652 -0.03923796 158.43161536 -0.03099765 163.79245949 -0.00802612 C165.74864837 -0.00277981 167.70486938 -0.00418197 169.66104507 -0.01307678 C184.2312323 -0.07317249 197.4889989 1.32183023 210.64038086 8.20507812 C211.30062256 8.54176514 211.96086426 8.87845215 212.64111328 9.2253418 C218.68169692 12.44516688 223.57112258 16.60581346 228.32788086 21.51757812 C229.19993164 22.32775391 229.19993164 22.32775391 230.08959961 23.15429688 C231.32788086 24.51757812 231.32788086 24.51757812 231.32788086 26.51757812 C231.98788086 26.51757812 232.64788086 26.51757812 233.32788086 26.51757812 C245.98236005 47.58133729 248.64852302 67.14005175 248.58666992 91.32788086 C248.58938837 93.14352559 248.59295404 94.95916921 248.59729004 96.77481079 C248.60631558 101.6529844 248.60291073 106.53107228 248.59653187 111.40924716 C248.59141961 116.54839203 248.59617776 121.68753022 248.5993042 126.82667542 C248.60292909 135.45322976 248.59818406 144.07974972 248.58862305 152.70629883 C248.57774484 162.63504624 248.58126549 172.56371144 248.59227586 182.49245685 C248.60139518 191.06371775 248.60261133 199.63495411 248.59739852 208.2062183 C248.59430377 213.3049622 248.59379986 218.40366766 248.6004715 223.50240898 C248.60631227 228.30016363 248.602127 233.09781386 248.59068298 237.8955574 C248.58807181 239.64085913 248.58873952 241.38616987 248.59320831 243.13146782 C248.65081555 267.94647527 246.58306499 293.57411753 228.58300781 312.45776367 C213.32119844 327.71957305 194.58876882 332.87638116 173.6247406 332.93527222 C171.7232964 332.93103557 169.8218529 332.92647786 167.92041016 332.92163086 C165.88536201 332.92734323 163.85031707 332.93431083 161.8152771 332.94242859 C156.32129947 332.96028066 150.82748226 332.95920645 145.33348441 332.9534862 C140.73150079 332.95038235 136.12954745 332.95650017 131.52756816 332.96252495 C120.66223305 332.97654291 109.79697661 332.97503205 98.93164062 332.96362305 C87.75773672 332.95214861 76.58407303 332.96621254 65.41020077 332.99301952 C55.78427345 333.01524018 46.15842118 333.02179947 36.53247005 333.01594311 C30.79764189 333.01258706 25.0629676 333.01489808 19.32816124 333.03219414 C13.93121575 333.04776262 8.53462353 333.04359868 3.1376915 333.02488899 C1.16901907 333.02123017 -0.79968012 333.02423148 -2.76832771 333.03477478 C-25.3794494 333.14652649 -44.66545956 328.47945998 -61.67211914 312.51757812 C-66.67211914 307.38657376 -66.67211914 307.38657376 -66.67211914 304.51757812 C-67.33211914 304.51757812 -67.99211914 304.51757812 -68.67211914 304.51757812 C-73.1220723 296.49254124 -77.04262337 288.69241665 -79.10961914 279.70507812 C-79.33633301 278.72196655 -79.33633301 278.72196655 -79.56762695 277.71899414 C-82.02287794 266.00431255 -81.82127657 254.07975993 -81.81738281 242.1730957 C-81.8203798 240.3353875 -81.82378357 238.49767991 -81.82756042 236.65997314 C-81.83635014 231.69482915 -81.83873642 226.72970242 -81.83937621 221.7645514 C-81.84008963 218.65454764 -81.84222945 215.5445482 -81.84487343 212.43454552 C-81.85411054 201.56207376 -81.85821041 190.68961422 -81.85742188 179.81713867 C-81.85682167 169.71920729 -81.8673664 159.62132942 -81.88316554 149.52341157 C-81.89628753 140.82322148 -81.90160382 132.12304878 -81.90096647 123.42284888 C-81.90071283 118.24023692 -81.90348934 113.05767258 -81.91414452 107.87507057 C-81.92390416 102.99533297 -81.92385139 98.11568772 -81.91662788 93.23594666 C-81.91559171 91.45755565 -81.91788648 89.67915865 -81.92398834 87.90077782 C-82.00476055 62.70314823 -79.13679426 38.86172415 -61.04711914 19.76367188 C-43.7158248 3.37305634 -22.82554096 -0.10390677 0 0 Z M25.21568871 68.33407021 C24.15907925 70.93273513 24.07077763 72.9001848 24.06045532 75.70370483 C24.05192535 76.75230179 24.04339539 77.80089874 24.03460693 78.88127136 C24.03551331 80.0263063 24.03641968 81.17134125 24.03735352 82.35107422 C24.03063629 83.56121689 24.02391907 84.77135956 24.01699829 86.01817322 C24.00125453 89.33442593 23.99464323 92.6504282 23.99336672 95.96670103 C23.99194414 98.03988052 23.98767252 100.11303384 23.98237228 102.18620682 C23.96387419 109.42265741 23.95570137 116.65903436 23.95727539 123.89550781 C23.95847668 130.6347994 23.93737653 137.37377066 23.90578806 144.1129812 C23.87961301 149.90420579 23.86890861 155.69532583 23.87018621 161.4866091 C23.8706955 164.94317682 23.86503125 168.39945982 23.84383011 171.85596848 C23.82082052 175.7125366 23.82997621 179.56866741 23.84204102 183.42529297 C23.830802 184.56627945 23.81956299 185.70726593 23.8079834 186.88282776 C23.85710643 193.05608378 24.09866794 196.87253399 28.32788086 201.51757812 C32.91317776 204.57444273 36.96580814 204.49610681 42.32788086 203.51757812 C46.96201746 201.27543299 51.09432369 198.43240055 55.32788086 195.51757812 C57.19307765 194.35585529 59.06717582 193.20820734 60.95288086 192.08007812 C61.72889648 191.60699219 62.50491211 191.13390625 63.30444336 190.64648438 C65.32788086 189.51757812 65.32788086 189.51757812 68.32788086 188.51757812 C68.32788086 187.85757813 68.32788086 187.19757813 68.32788086 186.51757812 C69.21382935 186.32421875 69.21382935 186.32421875 70.11767578 186.12695312 C73.57827958 185.17283106 76.54788775 183.29542762 79.64038086 181.51757812 C80.34388672 181.11748535 81.04739258 180.71739258 81.7722168 180.30517578 C87.84193673 176.83618296 93.83781981 173.2479413 99.82006836 169.63085938 C103.88426217 167.17536301 107.98557211 164.7857882 112.09350586 162.40429688 C114.56958309 160.95991849 117.03693232 159.50379087 119.49975586 158.03710938 C126.9836864 153.58798483 134.42884748 149.20508756 142.32788086 145.51757812 C142.32788086 144.85757813 142.32788086 144.19757813 142.32788086 143.51757812 C144.32788086 142.51757812 146.32788086 141.51757813 148.32788086 140.51757812 C150.78430815 136.96940538 150.76336389 133.72724743 150.32788086 129.51757812 C147.4990806 123.49100365 142.84531468 120.82073056 137.32788086 117.51757812 C136.70091309 117.14052734 136.07394531 116.76347656 135.42797852 116.375 C127.52360289 111.63348766 119.56652807 107.00688871 111.42944336 102.67382812 C109.32788086 101.51757813 109.32788086 101.51757813 106.32788086 99.51757812 C105.33788086 99.51757812 104.34788086 99.51757812 103.32788086 99.51757812 C103.32788086 98.85757813 103.32788086 98.19757813 103.32788086 97.51757812 C102.62405273 97.17726562 101.92022461 96.83695313 101.19506836 96.48632812 C89.95707723 90.97002961 79.23599907 84.63710192 68.44238281 78.31298828 C64.31166879 75.89734748 60.17363206 73.49444656 56.03393555 71.09423828 C53.75057698 69.76385849 51.47910015 68.41614306 49.21069336 67.06054688 C40.87520142 62.24557447 31.41142708 58.21485686 25.21568871 68.33407021 Z M-45.67211914 240.51757812 C-45.67211914 252.39757812 -45.67211914 264.27757812 -45.67211914 276.51757812 C-43.69211914 276.51757812 -41.71211914 276.51757812 -39.67211914 276.51757812 C-39.67211914 268.26757812 -39.67211914 260.01757812 -39.67211914 251.51757812 C-39.01211914 251.51757812 -38.35211914 251.51757812 -37.67211914 251.51757812 C-37.44395508 252.18789063 -37.21579102 252.85820312 -36.98071289 253.54882812 C-35.30460973 257.35133083 -33.07998723 260.5993649 -30.73461914 264.01757812 C-29.84943777 265.31893647 -28.9652998 266.62100523 -28.08227539 267.92382812 C-27.65833496 268.53613281 -27.23439453 269.1484375 -26.79760742 269.77929688 C-25.67211914 271.51757812 -25.67211914 271.51757812 -24.29321289 274.48632812 C-23.49077148 275.49179687 -23.49077148 275.49179687 -22.67211914 276.51757812 C-20.36211914 276.51757812 -18.05211914 276.51757812 -15.67211914 276.51757812 C-15.67211914 264.63757813 -15.67211914 252.75757813 -15.67211914 240.51757812 C-17.65211914 240.51757812 -19.63211914 240.51757812 -21.67211914 240.51757812 C-22.89996723 241.52317607 -22.89996723 241.52317607 -22.78564453 243.55883789 C-22.77778931 244.8706604 -22.77778931 244.8706604 -22.76977539 246.20898438 C-22.76494141 247.6253418 -22.76494141 247.6253418 -22.76000977 249.0703125 C-22.75163086 250.06353516 -22.74325195 251.05675781 -22.73461914 252.08007812 C-22.73010742 253.07716797 -22.7255957 254.07425781 -22.72094727 255.1015625 C-22.70911921 257.57362661 -22.69263763 260.0455733 -22.67211914 262.51757812 C-23.33211914 262.51757812 -23.99211914 262.51757812 -24.67211914 262.51757812 C-26.15258789 260.49804688 -26.15258789 260.49804688 -27.85961914 257.70507812 C-28.48223633 256.7125 -29.10485352 255.71992188 -29.74633789 254.69726562 C-31.01642409 252.60020646 -32.24944137 250.48018233 -33.44165039 248.33789062 C-34.01270508 247.3453125 -34.58375977 246.35273438 -35.17211914 245.33007812 C-35.67743164 244.40839844 -36.18274414 243.48671875 -36.70336914 242.53710938 C-37.35305664 241.87066406 -38.00274414 241.20421875 -38.67211914 240.51757812 C-40.98211914 240.51757812 -43.29211914 240.51757812 -45.67211914 240.51757812 Z M-7.67211914 240.51757812 C-7.67211914 252.39757812 -7.67211914 264.27757812 -7.67211914 276.51757812 C-0.74211914 276.51757812 6.18788086 276.51757812 13.32788086 276.51757812 C13.32788086 274.53757812 13.32788086 272.55757813 13.32788086 270.51757812 C8.37788086 270.51757812 3.42788086 270.51757812 -1.67211914 270.51757812 C-1.67211914 267.21757812 -1.67211914 263.91757812 -1.67211914 260.51757812 C3.27788086 260.51757812 8.22788086 260.51757812 13.32788086 260.51757812 C13.32788086 258.86757813 13.32788086 257.21757812 13.32788086 255.51757812 C8.37788086 255.51757812 3.42788086 255.51757812 -1.67211914 255.51757812 C-1.67211914 252.21757812 -1.67211914 248.91757812 -1.67211914 245.51757812 C3.27788086 245.51757812 8.22788086 245.51757812 13.32788086 245.51757812 C13.32788086 243.86757813 13.32788086 242.21757812 13.32788086 240.51757812 C6.39788086 240.51757812 -0.53211914 240.51757812 -7.67211914 240.51757812 Z M20.32788086 240.51757812 C20.32788086 241.17757812 20.32788086 241.83757812 20.32788086 242.51757812 C20.98788086 242.51757812 21.64788086 242.51757812 22.32788086 242.51757812 C22.55475586 243.34257812 22.78163086 244.16757812 23.01538086 245.01757812 C24.15235889 248.04951953 25.24856359 249.92562995 27.07788086 252.51757812 C29.39408422 256.08725625 29.39408422 256.08725625 28.82788086 259.76757812 C27.48992339 262.22050015 26.01055025 264.29951392 24.32788086 266.51757812 C24.32788086 267.50757813 24.32788086 268.49757813 24.32788086 269.51757812 C23.66788086 269.51757812 23.00788086 269.51757812 22.32788086 269.51757812 C20.84288086 272.98257812 20.84288086 272.98257812 19.32788086 276.51757812 C21.63788086 276.51757812 23.94788086 276.51757812 26.32788086 276.51757812 C27.49964604 274.39524834 28.6654287 272.27000021 29.82788086 270.14257812 C30.16174805 269.53929687 30.49561523 268.93601562 30.83959961 268.31445312 C32.71562024 265.10343036 32.71562024 265.10343036 33.32788086 261.51757812 C33.98788086 261.51757812 34.64788086 261.51757812 35.32788086 261.51757812 C35.60374023 262.23300781 35.87959961 262.9484375 36.16381836 263.68554688 C37.31036608 266.47496667 38.59015201 269.14048171 39.95288086 271.83007812 C40.39889648 272.71308594 40.84491211 273.59609375 41.30444336 274.50585938 C41.64217773 275.16972656 41.97991211 275.83359375 42.32788086 276.51757812 C44.96788086 276.51757812 47.60788086 276.51757812 50.32788086 276.51757812 C49.24539394 274.80870833 48.16184792 273.10050942 47.07788086 271.39257812 C46.44366211 270.38710938 45.80944336 269.38164062 45.15600586 268.34570312 C43.77407425 266.20784312 42.34914264 264.17806924 40.82788086 262.14257812 C39.32788086 259.51757812 39.32788086 259.51757812 39.48022461 257.31054688 C40.60574891 253.60202211 42.41308838 250.52105567 44.39038086 247.20507812 C44.76743164 246.55990234 45.14448242 245.91472656 45.53295898 245.25 C46.45825579 243.66879661 47.39220767 242.09266352 48.32788086 240.51757812 C45.46176611 240.15742004 45.46176611 240.15742004 42.32788086 240.51757812 C40.42245123 242.34481658 40.42245123 242.34481658 39.14038086 244.83007812 C37.32731959 247.93176146 35.92323921 249.92221977 33.32788086 252.51757812 C30.35788086 246.57757813 30.35788086 246.57757813 27.32788086 240.51757812 C25.01788086 240.51757812 22.70788086 240.51757812 20.32788086 240.51757812 Z M54.32788086 240.51757812 C54.32788086 242.16757812 54.32788086 243.81757813 54.32788086 245.51757812 C57.62788086 245.51757812 60.92788086 245.51757812 64.32788086 245.51757812 C64.32788086 255.74757813 64.32788086 265.97757812 64.32788086 276.51757812 C66.30788086 276.51757812 68.28788086 276.51757812 70.32788086 276.51757812 C70.32788086 266.28757812 70.32788086 256.05757812 70.32788086 245.51757812 C73.95788086 245.51757812 77.58788086 245.51757812 81.32788086 245.51757812 C81.32788086 243.86757813 81.32788086 242.21757812 81.32788086 240.51757812 C72.41788086 240.51757812 63.50788086 240.51757812 54.32788086 240.51757812 Z M85.32788086 240.51757812 C89.28788086 252.39757812 93.24788086 264.27757812 97.32788086 276.51757812 C99.96788086 276.51757812 102.60788086 276.51757812 105.32788086 276.51757812 C108.27067524 269.93956715 110.44060378 263.15678965 112.51538086 256.26757812 C112.77722168 255.40422852 113.0390625 254.54087891 113.30883789 253.65136719 C114.60367438 249.29025666 115.71478081 245.03826765 116.32788086 240.51757812 C114.34788086 240.51757812 112.36788086 240.51757812 110.32788086 240.51757812 C110.01334961 241.62875 109.69881836 242.73992187 109.37475586 243.88476562 C108.94273479 245.38744761 108.51042759 246.89004736 108.07788086 248.39257812 C107.87291992 249.11960937 107.66795898 249.84664062 107.45678711 250.59570312 C105.75592082 256.47142303 103.62914892 261.76440798 101.32788086 267.51757812 C98.35788086 258.60757812 95.38788086 249.69757813 92.32788086 240.51757812 C90.01788086 240.51757812 87.70788086 240.51757812 85.32788086 240.51757812 Z M124.32788086 240.51757812 C124.32788086 252.39757812 124.32788086 264.27757812 124.32788086 276.51757812 C126.30788086 276.51757812 128.28788086 276.51757812 130.32788086 276.51757812 C130.32788086 264.63757813 130.32788086 252.75757813 130.32788086 240.51757812 C128.34788086 240.51757812 126.36788086 240.51757812 124.32788086 240.51757812 Z M139.32788086 240.51757812 C139.32788086 252.39757812 139.32788086 264.27757812 139.32788086 276.51757812 C146.25788086 276.51757812 153.18788086 276.51757812 160.32788086 276.51757812 C160.32788086 274.53757812 160.32788086 272.55757813 160.32788086 270.51757812 C155.37788086 270.51757812 150.42788086 270.51757812 145.32788086 270.51757812 C145.32788086 267.21757812 145.32788086 263.91757812 145.32788086 260.51757812 C149.94788086 260.51757812 154.56788086 260.51757812 159.32788086 260.51757812 C159.32788086 258.86757813 159.32788086 257.21757812 159.32788086 255.51757812 C154.70788086 255.51757812 150.08788086 255.51757812 145.32788086 255.51757812 C145.32788086 252.21757812 145.32788086 248.91757812 145.32788086 245.51757812 C150.27788086 245.51757812 155.22788086 245.51757812 160.32788086 245.51757812 C160.32788086 243.86757813 160.32788086 242.21757812 160.32788086 240.51757812 C153.39788086 240.51757812 146.46788086 240.51757812 139.32788086 240.51757812 Z M167.32788086 240.51757812 C168.05846855 246.4353384 169.31858239 252.15832827 170.70288086 257.95507812 C170.91170898 258.85806641 171.12053711 259.76105469 171.33569336 260.69140625 C172.63386183 266.15717046 174.24119453 271.30086231 176.32788086 276.51757812 C178.30788086 276.51757812 180.28788086 276.51757812 182.32788086 276.51757812 C184.22822815 271.67169255 185.9318413 266.78920558 187.51538086 261.83007812 C187.85956055 260.75371094 188.20374023 259.67734375 188.55834961 258.56835938 C189.27429501 255.73001745 189.48432254 253.42523558 189.32788086 250.51757812 C191.32788086 251.51757812 191.32788086 251.51757812 192.19750977 253.92602539 C192.62169189 255.48921509 192.62169189 255.48921509 193.05444336 257.08398438 C193.51850586 258.77104492 193.51850586 258.77104492 193.99194336 260.4921875 C194.30905273 261.67619141 194.62616211 262.86019531 194.95288086 264.08007812 C195.44014648 265.86188477 195.44014648 265.86188477 195.93725586 267.6796875 C196.74126752 270.62378901 197.53778469 273.56971732 198.32788086 276.51757812 C200.30788086 276.51757812 202.28788086 276.51757812 204.32788086 276.51757812 C207.2390129 268.93237882 209.58049462 261.3274295 211.57788086 253.45507812 C211.84600586 252.42447266 212.11413086 251.39386719 212.39038086 250.33203125 C213.77818128 245.48490973 213.77818128 245.48490973 214.32788086 240.51757812 C212.34788086 240.51757812 210.36788086 240.51757812 208.32788086 240.51757812 C207.32392865 244.30820973 206.32538992 248.10024637 205.32788086 251.89257812 C204.89862305 253.51292969 204.89862305 253.51292969 204.46069336 255.16601562 C204.18999023 256.19726562 203.91928711 257.22851562 203.64038086 258.29101562 C203.38901367 259.24411621 203.13764648 260.1972168 202.87866211 261.17919922 C202.25145889 263.44163793 202.25145889 263.44163793 202.32788086 265.51757812 C201.66788086 265.51757812 201.00788086 265.51757812 200.32788086 265.51757812 C200.22991211 264.958125 200.13194336 264.39867187 200.03100586 263.82226562 C198.41690965 251.28161768 198.41690965 251.28161768 193.32788086 240.51757812 C190.86996057 240.18414262 190.86996057 240.18414262 188.32788086 240.51757812 C186.27754482 243.59308218 185.697852 245.64216875 184.89038086 249.20507812 C184.00402852 252.94042013 183.04805024 256.50778508 181.64038086 260.08007812 C180.14953008 263.37142957 180.14953008 263.37142957 180.32788086 266.51757812 C179.66788086 266.51757812 179.00788086 266.51757812 178.32788086 266.51757812 C178.24538086 265.38320313 178.16288086 264.24882812 178.07788086 263.08007812 C177.25389242 255.43051379 175.16814371 247.97278249 173.32788086 240.51757812 C171.34788086 240.51757812 169.36788086 240.51757812 167.32788086 240.51757812 Z " fill="#DF2021" transform="translate(166.672119140625,83.482421875)"/>
<path d="M0 0 C4.12494151 -0.05784708 8.24977944 -0.09354407 12.375 -0.125 C13.550625 -0.14175781 14.72625 -0.15851563 15.9375 -0.17578125 C17.61972656 -0.18544922 17.61972656 -0.18544922 19.3359375 -0.1953125 C20.37282715 -0.20578613 21.4097168 -0.21625977 22.47802734 -0.22705078 C25 0 25 0 27 2 C25.35 2.33 23.7 2.66 22 3 C22 5.31 22 7.62 22 10 C23.65 10 25.3 10 27 10 C27 9.01 27 8.02 27 7 C27 5.68 27 4.36 27 3 C29.64 3 32.28 3 35 3 C35 3.33 35 3.66 35 4 C32.69 4 30.38 4 28 4 C28 4.66 28 5.32 28 6 C28.66 6 29.32 6 30 6 C30.75 8.75 30.75 8.75 31 12 C29.0625 14.375 29.0625 14.375 27 16 C27.66 16 28.32 16 29 16 C28.67 17.98 28.34 19.96 28 22 C27.01 22 26.02 22 25 22 C24.67 22.99 24.34 23.98 24 25 C18.39 25 12.78 25 7 25 C7 27.31 7 29.62 7 32 C6.67 32 6.34 32 6 32 C6 29.36 6 26.72 6 24 C10.95 24 15.9 24 21 24 C21 22.35 21 20.7 21 19 C16.05 19 11.1 19 6 19 C6 15.7 6 12.4 6 9 C10.95 9 15.9 9 21 9 C21 7.35 21 5.7 21 4 C14.07 4 7.14 4 0 4 C0 15.88 0 27.76 0 40 C6.93 40 13.86 40 21 40 C21 40.33 21 40.66 21 41 C13.74 41 6.48 41 -1 41 C-1.02294724 35.64309433 -1.04286325 30.286359 -1.05493164 24.92944336 C-1.0599624 23.10684634 -1.06678769 21.28425335 -1.07543945 19.46166992 C-1.08755997 16.84292606 -1.09324086 14.22423553 -1.09765625 11.60546875 C-1.10281754 10.78974899 -1.10797882 9.97402924 -1.11329651 9.1335907 C-1.1136246 5.82986071 -1.05225621 3.15676862 0 0 Z " fill="#DB3D3E" transform="translate(159,320)"/>
<path d="M0 0 C0.66 0.33 1.32 0.66 2 1 C4.50281998 1.06976502 6.98936428 0.99726891 9.4921875 0.9375 C12 1 12 1 16 2 C16.33 11.24 16.66 20.48 17 30 C17.33 30 17.66 30 18 30 C18 32.64 18 35.28 18 38 C24.93 38 31.86 38 39 38 C39 36.02 39 34.04 39 32 C34.05 32 29.1 32 24 32 C24 31.67 24 31.34 24 31 C24.67546875 30.93941406 25.3509375 30.87882812 26.046875 30.81640625 C26.93890625 30.73261719 27.8309375 30.64882813 28.75 30.5625 C29.63171875 30.48128906 30.5134375 30.40007812 31.421875 30.31640625 C33.95069188 30.07129387 33.95069188 30.07129387 36.140625 29.40234375 C38 29 38 29 41 30 C41.09765625 36.15234375 41.09765625 36.15234375 41 38 C39.28556781 39.71443219 36.99554759 39.23052967 34.65234375 39.31640625 C33.57275391 39.35830078 32.49316406 39.40019531 31.38085938 39.44335938 C30.24455078 39.48267578 29.10824219 39.52199219 27.9375 39.5625 C26.22723633 39.62727539 26.22723633 39.62727539 24.48242188 39.69335938 C21.65507805 39.79982839 18.82764262 39.90184207 16 40 C16 38.68 16 37.36 16 36 C15.34 36 14.68 36 14 36 C14.33 34.02 14.66 32.04 15 30 C14.34 30 13.68 30 13 30 C12.87625 30.9075 12.7525 31.815 12.625 32.75 C12.07018909 35.63501673 11.57173173 37.55508398 10 40 C9.01 40.66 8.02 41.32 7 42 C6.34 40.68 5.68 39.36 5 38 C6.32 38 7.64 38 9 38 C9 26.12 9 14.24 9 2 C7.02 2 5.04 2 3 2 C3 13.88 3 25.76 3 38 C0.88518838 33.77037676 0.76412236 31.89005069 0.8046875 27.265625 C0.81113281 25.97011719 0.81757813 24.67460937 0.82421875 23.33984375 C0.84092807 21.97655981 0.85785794 20.61327856 0.875 19.25 C0.8850366 17.87110015 0.89416127 16.49219335 0.90234375 15.11328125 C0.92591907 11.74201118 0.9588273 8.37109364 1 5 C-0.32 4.34 -1.64 3.68 -3 3 C-2.01 2.01 -1.02 1.02 0 0 Z " fill="#DD2021" transform="translate(288,322)"/>
<path d="M0 0 C5.5509839 6.69946333 5.5509839 6.69946333 7 10 C6.05299185 14.84026386 3.51132663 18.81445562 1 23 C0.34 23 -0.32 23 -1 23 C-1.66 24.98 -2.32 26.96 -3 29 C-3.33 29 -3.66 29 -4 29 C-4 27.02 -4 25.04 -4 23 C-2.68 22.67 -1.36 22.34 0 22 C0 21.34 0 20.68 0 20 C-1.78141747 19.13641377 -1.78141747 19.13641377 -4 19 C-7.06279477 21.18771055 -7.89872476 22.56114062 -8.75 26.25 C-8.8325 27.1575 -8.915 28.065 -9 29 C-9.33 29 -9.66 29 -10 29 C-10 27.35 -10 25.7 -10 24 C-14.95 24 -19.9 24 -25 24 C-24.505 19.545 -24.505 19.545 -24 15 C-15.585 14.505 -15.585 14.505 -7 14 C-6.67 13.34 -6.34 12.68 -6 12 C-5.01 12 -4.02 12 -3 12 C-3.33 11.01 -3.66 10.02 -4 9 C-3.34 8.01 -2.68 7.02 -2 6 C-2.66 6 -3.32 6 -4 6 C-2.89131683 3.78263366 -1.50559539 1.96382007 0 0 Z " fill="#DB2727" transform="translate(190,330)"/>
<path d="M0 0 C0.66 0 1.32 0 2 0 C1.37869771 6.30928097 -0.49989626 11.96207569 -2.5625 17.9375 C-3.0565332 19.3925293 -3.0565332 19.3925293 -3.56054688 20.87695312 C-4.3682448 23.25322384 -5.18150948 25.62742969 -6 28 C-9.44625996 24.89955851 -10.4465571 21.33452608 -11.75 17 C-11.98332031 16.27554687 -12.21664063 15.55109375 -12.45703125 14.8046875 C-14.12760666 9.38281999 -14.12760666 9.38281999 -13 6 C-11.68 7.32 -10.36 8.64 -9 10 C-9 8.35 -9 6.7 -9 5 C-6.69 3.68 -4.38 2.36 -2 1 C-1.67 1.33 -1.34 1.66 -1 2 C-0.67 1.34 -0.34 0.68 0 0 Z " fill="#D82C2E" transform="translate(275,324)"/>
<path d="M0 0 C2.97 0 5.94 0 9 0 C9 2.97 9 5.94 9 9 C9.99 9 10.98 9 12 9 C13.67106778 12.34213555 13.14242588 16.0789469 13.125 19.75 C13.12886719 20.54921875 13.13273438 21.3484375 13.13671875 22.171875 C13.1214578 31.45053162 13.1214578 31.45053162 12 35 C10.35 35.66 8.7 36.32 7 37 C7 25.12 7 13.24 7 1 C4.69 1 2.38 1 0 1 C0 0.67 0 0.34 0 0 Z " fill="#D92628" transform="translate(144,323)"/>
<path d="M0 0 C2.475 0.495 2.475 0.495 5 1 C4.34 2.32 3.68 3.64 3 5 C1.68 4.67 0.36 4.34 -1 4 C-1.0825 4.94875 -1.165 5.8975 -1.25 6.875 C-2 10 -2 10 -3.625 11.1875 C-6.75366207 12.25783176 -9.45091763 12.19098165 -12.75 12.125 C-13.92046875 12.10695313 -15.0909375 12.08890625 -16.296875 12.0703125 C-17.63492188 12.03550781 -17.63492188 12.03550781 -19 12 C-18.67 9.03 -18.34 6.06 -18 3 C-9.585 2.505 -9.585 2.505 -1 2 C-0.67 1.34 -0.34 0.68 0 0 Z " fill="#D82528" transform="translate(184,342)"/>
<path d="M0 0 C7.59 0 15.18 0 23 0 C23 2.64 23 5.28 23 8 C21.02 8 19.04 8 17 8 C17.33 9.65 17.66 11.3 18 13 C17.01 13.495 17.01 13.495 16 14 C17.65 14 19.3 14 21 14 C21 14.33 21 14.66 21 15 C16.38 15 11.76 15 7 15 C7 12.03 7 9.06 7 6 C11.95 6 16.9 6 22 6 C22 4.35 22 2.7 22 1 C15.07 1 8.14 1 1 1 C1 9.91 1 18.82 1 28 C0.67 28 0.34 28 0 28 C0 18.76 0 9.52 0 0 Z " fill="#DB4548" transform="translate(305,323)"/>
<path d="M0 0 C0.66 0.33 1.32 0.66 2 1 C4.50281998 1.06976502 6.98936428 0.99726891 9.4921875 0.9375 C12 1 12 1 16 2 C16 5.3 16 8.6 16 12 C14.68 11.34 13.36 10.68 12 10 C11.01 11.485 11.01 11.485 10 13 C8.82428549 9.32589215 8.92633254 5.83070817 9 2 C7.02 2 5.04 2 3 2 C3 13.88 3 25.76 3 38 C0.88518838 33.77037676 0.76412236 31.89005069 0.8046875 27.265625 C0.81113281 25.97011719 0.81757813 24.67460937 0.82421875 23.33984375 C0.84092807 21.97655981 0.85785794 20.61327856 0.875 19.25 C0.8850366 17.87110015 0.89416127 16.49219335 0.90234375 15.11328125 C0.92591907 11.74201118 0.9588273 8.37109364 1 5 C-0.32 4.34 -1.64 3.68 -3 3 C-2.01 2.01 -1.02 1.02 0 0 Z " fill="#DC3638" transform="translate(288,322)"/>
<path d="M0 0 C4.12494151 -0.05784708 8.24977944 -0.09354407 12.375 -0.125 C13.550625 -0.14175781 14.72625 -0.15851563 15.9375 -0.17578125 C17.61972656 -0.18544922 17.61972656 -0.18544922 19.3359375 -0.1953125 C20.37282715 -0.20578613 21.4097168 -0.21625977 22.47802734 -0.22705078 C25 0 25 0 27 2 C25.35 2.33 23.7 2.66 22 3 C22 4.98 22 6.96 22 9 C21.67 9 21.34 9 21 9 C21 7.35 21 5.7 21 4 C14.07 4 7.14 4 0 4 C0 15.88 0 27.76 0 40 C6.93 40 13.86 40 21 40 C21 40.33 21 40.66 21 41 C13.74 41 6.48 41 -1 41 C-1.02294724 35.64309433 -1.04286325 30.286359 -1.05493164 24.92944336 C-1.0599624 23.10684634 -1.06678769 21.28425335 -1.07543945 19.46166992 C-1.08755997 16.84292606 -1.09324086 14.22423553 -1.09765625 11.60546875 C-1.10281754 10.78974899 -1.10797882 9.97402924 -1.11329651 9.1335907 C-1.1136246 5.82986071 -1.05225621 3.15676862 0 0 Z " fill="#CB3E3E" transform="translate(159,320)"/>
<path d="M0 0 C0.33 0 0.66 0 1 0 C0.25865982 7.96940697 -2.4809412 15.4428236 -5 23 C-5.66 23 -6.32 23 -7 23 C-7.50690584 20.93918639 -8.00524619 18.87626474 -8.5 16.8125 C-8.7784375 15.66394531 -9.056875 14.51539063 -9.34375 13.33203125 C-9.91495385 10.43181171 -10.13283779 7.93903615 -10 5 C-9.01 4.67 -8.02 4.34 -7 4 C-5.33289654 2.50014391 -5.33289654 2.50014391 -4 1 C-2.75453595 3.49092811 -3.2232422 4.41080733 -4 7 C-3.34 7 -2.68 7 -2 7 C-1.855625 6.401875 -1.71125 5.80375 -1.5625 5.1875 C-1.1127561 3.43849596 -0.57107659 1.71322977 0 0 Z " fill="#D83C40" transform="translate(352,327)"/>
<path d="M0 0 C0.66 0 1.32 0 2 0 C5.31168629 4.0909066 6.50130606 6.73628638 6 12 C6.66 12 7.32 12 8 12 C8 13.32 8 14.64 8 16 C6.35 16.33 4.7 16.66 3 17 C2.34 20.3 1.68 23.6 1 27 C-1.31 26.67 -3.62 26.34 -6 26 C-6 25.67 -6 25.34 -6 25 C-4.02 25 -2.04 25 0 25 C0 16.75 0 8.5 0 0 Z " fill="#DB4949" transform="translate(127,335)"/>
<path d="M0 0 C1.32827107 2.65654214 0.72245548 3.59432385 -0.1875 6.375 C-1.50360718 10.15956627 -2.9389838 12.34711929 -6 15 C-6.33 15.99 -6.66 16.98 -7 18 C-6.34 18.33 -5.68 18.66 -5 19 C-2.67510478 21.67715207 -1.12775871 23.61672388 0 27 C0.66 27.33 1.32 27.66 2 28 C3.3749149 30.90259811 4 32.76138705 4 36 C0.7 36 -2.6 36 -6 36 C-5.67 34.68 -5.34 33.36 -5 32 C-5 32.99 -5 33.98 -5 35 C-1.535 34.505 -1.535 34.505 2 34 C1.54109375 33.34773438 1.0821875 32.69546875 0.609375 32.0234375 C-0.65607388 30.22097039 -1.91629814 28.41482646 -3.171875 26.60546875 C-4.22021658 25.111358 -5.28409506 23.62732473 -6.390625 22.17578125 C-8.05328218 19.94524468 -9.04016659 18.59116987 -8.84765625 15.7578125 C-7.75622538 12.20688995 -5.93552476 9.28288551 -3.9375 6.1875 C-3.56044922 5.59001953 -3.18339844 4.99253906 -2.79492188 4.37695312 C-1.87010434 2.91363423 -0.93597935 1.45620477 0 0 Z " fill="#D2484B" transform="translate(214,325)"/>
<path d="M0 0 C0.99 0 1.98 0 3 0 C2.41632611 6.30367803 0.95928381 11.98660063 -1 18 C-1.66 18 -2.32 18 -3 18 C-3.70045456 16.08802961 -4.384919 14.17019565 -5.0625 12.25 C-5.44535156 11.18265625 -5.82820313 10.1153125 -6.22265625 9.015625 C-6.98010011 6.07719958 -7.07151741 4.77651052 -6 2 C-6 2.66 -6 3.32 -6 4 C-4.02 3.67 -2.04 3.34 0 3 C0 2.01 0 1.02 0 0 Z " fill="#DC5353" transform="translate(370,331)"/>
<path d="M0 0 C0.99 0.33 1.98 0.66 3 1 C3.94921875 4.16015625 3.94921875 4.16015625 4.6875 8.0625 C5.06455078 9.99802734 5.06455078 9.99802734 5.44921875 11.97265625 C5.63097656 12.97167969 5.81273437 13.97070312 6 15 C3 17 3 17 0.3125 16.625 C-0.8321875 16.315625 -0.8321875 16.315625 -2 16 C-3.3805087 12.23331402 -2.59568159 9.55210827 -1.5625 5.75 C-1.27503906 4.67234375 -0.98757813 3.5946875 -0.69140625 2.484375 C-0.46324219 1.66453125 -0.23507812 0.8446875 0 0 Z " fill="#DA3738" transform="translate(356,334)"/>
<path d="M0 0 C4.29 0 8.58 0 13 0 C11.68 0.99 10.36 1.98 9 3 C10.87596527 6.35143175 10.87596527 6.35143175 15 8 C10.05 8 5.1 8 0 8 C0 5.36 0 2.72 0 0 Z " fill="#D31C1F" transform="translate(166,330)"/>
<path d="M0 0 C0.09765625 6.15234375 0.09765625 6.15234375 0 8 C-1.71443219 9.71443219 -4.00445241 9.23052967 -6.34765625 9.31640625 C-7.96704102 9.37924805 -7.96704102 9.37924805 -9.61914062 9.44335938 C-10.75544922 9.48267578 -11.89175781 9.52199219 -13.0625 9.5625 C-14.20267578 9.60568359 -15.34285156 9.64886719 -16.51757812 9.69335938 C-19.34492195 9.79982839 -22.17235738 9.90184207 -25 10 C-25.1953125 3.9453125 -25.1953125 3.9453125 -25 2 C-24.34 1.34 -23.68 0.68 -23 0 C-23 2.64 -23 5.28 -23 8 C-16.07 8 -9.14 8 -2 8 C-2 6.02 -2 4.04 -2 2 C-6.95 2 -11.9 2 -17 2 C-17 1.67 -17 1.34 -17 1 C-15.95199219 0.90912109 -15.95199219 0.90912109 -14.8828125 0.81640625 C-13.97273438 0.73261719 -13.06265625 0.64882813 -12.125 0.5625 C-11.22007812 0.48128906 -10.31515625 0.40007812 -9.3828125 0.31640625 C-2.51470588 -0.59558824 -2.51470588 -0.59558824 0 0 Z " fill="#D23536" transform="translate(329,352)"/>
<path d="M0 0 C2.475 0.495 2.475 0.495 5 1 C4.34 2.32 3.68 3.64 3 5 C1.68 4.67 0.36 4.34 -1 4 C-1.12375 4.969375 -1.2475 5.93875 -1.375 6.9375 C-1.684375 8.4534375 -1.684375 8.4534375 -2 10 C-4.95664519 11.4783226 -7.74229737 11.06032783 -11 11 C-9.68 10.34 -8.36 9.68 -7 9 C-7.33 7.68 -7.66 6.36 -8 5 C-11.3 4.67 -14.6 4.34 -18 4 C-18 3.67 -18 3.34 -18 3 C-9.585 2.505 -9.585 2.505 -1 2 C-0.67 1.34 -0.34 0.68 0 0 Z " fill="#D51C20" transform="translate(184,342)"/>
<path d="M0 0 C0.66 0 1.32 0 2 0 C3.01661538 8.16923077 3.01661538 8.16923077 2.9375 12.125 C3.01506894 15.69317107 3.81529563 18.64333762 5 22 C5.66 22.33 6.32 22.66 7 23 C6.67 23.99 6.34 24.98 6 26 C5.01 26.33 4.02 26.66 3 27 C-1.69234866 8.75430499 -1.69234866 8.75430499 -1 1 C-0.67 0.67 -0.34 0.34 0 0 Z " fill="#D44243" transform="translate(87,345)"/>
<path d="M0 0 C2.475 0.99 2.475 0.99 5 2 C5.42044685 15.12728504 5.42044685 15.12728504 3 19 C0.08523075 20.3961052 -2.85931866 21.26329697 -6 22 C-6 22.66 -6 23.32 -6 24 C-7.65 24 -9.3 24 -11 24 C-9.6875 22.5 -9.6875 22.5 -8 21 C-7.01 21 -6.02 21 -5 21 C-5 20.34 -5 19.68 -5 19 C-1.53846154 16 -1.53846154 16 1 16 C2.77641602 10.44869995 2.53883587 5.23634898 0 0 Z " fill="#CE3D40" transform="translate(314,208)"/>
<path d="M0 0 C0 0.66 0 1.32 0 2 C-1.98 2 -3.96 2 -6 2 C-6.33 4.31 -6.66 6.62 -7 9 C-7.33 8.01 -7.66 7.02 -8 6 C-11.465 7.485 -11.465 7.485 -15 9 C-15.22036864 5.14354879 -14.60355101 2.50776784 -13 -1 C-12.67 -0.01 -12.34 0.98 -12 2 C-11.4225 1.525625 -10.845 1.05125 -10.25 0.5625 C-6.28896505 -2.18821872 -4.1707056 -2.53221411 0 0 Z " fill="#E01F21" transform="translate(381,322)"/>
<path d="M0 0 C2.73713661 5.47427321 2.65403022 10.45492149 2.9375 16.5 C3.01806641 17.64082031 3.09863281 18.78164063 3.18164062 19.95703125 C3.58118609 28.35241863 3.58118609 28.35241863 0.50390625 31.78125 C-0.32238281 32.1834375 -1.14867187 32.585625 -2 33 C-2.66 31.68 -3.32 30.36 -4 29 C-2.68 29 -1.36 29 0 29 C0 19.43 0 9.86 0 0 Z " fill="#BF262A" transform="translate(297,331)"/>
<path d="M0 0 C9.83743016 -0.33706931 18.50386702 -0.02149686 28 3 C28 3.33 28 3.66 28 4 C23.545 4.495 23.545 4.495 19 5 C19 4.34 19 3.68 19 3 C13.06 3 7.12 3 1 3 C0.67 2.01 0.34 1.02 0 0 Z " fill="#DA4B47" transform="translate(338,84)"/>
<path d="M0 0 C3.23593233 3.23593233 2.96696248 7.00034867 3.11352539 11.43505859 C3.10567017 13.27318115 3.10567017 13.27318115 3.09765625 15.1484375 C3.0962413 15.80582916 3.09482635 16.46322083 3.09336853 17.14053345 C3.08781762 19.21873731 3.07527465 21.29682927 3.0625 23.375 C3.05747864 24.79296718 3.05291685 26.21093607 3.04882812 27.62890625 C3.03786437 31.08597322 3.02063421 34.54297567 3 38 C0.75265072 34.40735167 0.76799492 31.44857927 0.8046875 27.265625 C0.81113281 25.97011719 0.81757813 24.67460937 0.82421875 23.33984375 C0.84092807 21.97655981 0.85785794 20.61327856 0.875 19.25 C0.8850366 17.87110015 0.89416127 16.49219335 0.90234375 15.11328125 C0.92591907 11.74201118 0.9588273 8.37109364 1 5 C-0.32 4.34 -1.64 3.68 -3 3 C-2.01 2.01 -1.02 1.02 0 0 Z " fill="#C83D3E" transform="translate(288,322)"/>
<path d="M0 0 C0.99 0 1.98 0 3 0 C3.45375 0.515625 3.9075 1.03125 4.375 1.5625 C4.91125 2.036875 5.4475 2.51125 6 3 C8.65466049 2.76956136 8.65466049 2.76956136 11 2 C11.144375 2.598125 11.28875 3.19625 11.4375 3.8125 C11.8872439 5.56150404 12.42892341 7.28677023 13 9 C14.85744207 9.61067144 14.85744207 9.61067144 17 10 C18.3479743 10.63654342 19.68596724 11.29605388 21 12 C19.3984375 12.734375 19.3984375 12.734375 17 13 C14.72483208 11.8359606 12.73039526 10.66653322 10.625 9.25 C6.50276431 6.56620252 2.44175159 4.12023188 -2 2 C-1.34 1.34 -0.68 0.68 0 0 Z M12 0 C12.33 0.66 12.66 1.32 13 2 C12.34 1.67 11.68 1.34 11 1 C11.33 0.67 11.66 0.34 12 0 Z " fill="#D23C40" transform="translate(211,146)"/>
<path d="M0 0 C3.20908064 3.74985698 5.60863807 7.66875413 7.8125 12.0625 C8.29879883 12.97999023 8.29879883 12.97999023 8.79492188 13.91601562 C11.07112292 18.42455089 11.07112292 18.42455089 10.69921875 21.43359375 C10.46847656 21.95050781 10.23773438 22.46742188 10 23 C9.34 22.67 8.68 22.34 8 22 C8 20.68 8 19.36 8 18 C7.01 18.33 6.02 18.66 5 19 C4.01 14.05 3.02 9.1 2 4 C1.34 4 0.68 4 0 4 C0 2.68 0 1.36 0 0 Z " fill="#D64444" transform="translate(399,110)"/>
<path d="M0 0 C0.66 0 1.32 0 2 0 C3.65 3.3 5.3 6.6 7 10 C6.01 10.495 6.01 10.495 5 11 C4.67 10.34 4.34 9.68 4 9 C1.36 9.33 -1.28 9.66 -4 10 C-3.43697042 6.05879291 -2.3208055 3.2491277 0 0 Z " fill="#D44748" transform="translate(200,345)"/>
<path d="M0 0 C4.95 0 9.9 0 15 0 C15 0.66 15 1.32 15 2 C18.3 2.33 21.6 2.66 25 3 C25 3.66 25 4.32 25 5 C16.21156902 5.62774507 8.39685444 3.30784711 0 1 C0 0.67 0 0.34 0 0 Z " fill="#D44B4B" transform="translate(130,411)"/>
<path d="M0 0 C0.66 0.99 1.32 1.98 2 3 C2.66 3.66 3.32 4.32 4 5 C4.66 4.34 5.32 3.68 6 3 C5.44894091 6.9492568 4.61064629 10.34920174 3 14 C1 11 1 11 1 9 C-0.32 8.67 -1.64 8.34 -3 8 C-1.125 1.125 -1.125 1.125 0 0 Z " fill="#E11E24" transform="translate(405,363)"/>
<path d="M0 0 C2.50014115 3.74095194 1.90042304 6.44209421 1.125 10.75 C0.81949219 12.50570313 0.81949219 12.50570313 0.5078125 14.296875 C0.25644531 15.63492187 0.25644531 15.63492187 0 17 C-0.66 17 -1.32 17 -2 17 C-2.33 17.66 -2.66 18.32 -3 19 C-4.1875 17.4375 -4.1875 17.4375 -5 15 C-4.34413134 13.29474148 -3.67246152 11.59113228 -2.87109375 9.94921875 C-1.43879815 6.74421649 -0.7790186 3.41569694 0 0 Z " fill="#D64448" transform="translate(279,336)"/>
<path d="M0 0 C0.33 0.66 0.66 1.32 1 2 C0.34 2 -0.32 2 -1 2 C-1 2.66 -1 3.32 -1 4 C-1.9793879 5.02019573 -2.97895449 6.02149805 -4 7 C-4 7.33 -4 7.66 -4 8 C-11.5 10.125 -11.5 10.125 -16 9 C-10.72 6.03 -5.44 3.06 0 0 Z " fill="#D6494A" transform="translate(279,245)"/>
<path d="M0 0 C2.97 0.495 2.97 0.495 6 1 C6 1.66 6 2.32 6 3 C6.99 3 7.98 3 9 3 C9.33 4.32 9.66 5.64 10 7 C12.31 7.33 14.62 7.66 17 8 C15.3515625 9.19921875 15.3515625 9.19921875 13 10 C10.2734375 8.76953125 10.2734375 8.76953125 7.375 6.8125 C6.41335937 6.17957031 5.45171875 5.54664063 4.4609375 4.89453125 C2 3 2 3 0 0 Z " fill="#D2504F" transform="translate(110,399)"/>
<path d="M0 0 C0.99 0.33 1.98 0.66 3 1 C3.33 4.3 3.66 7.6 4 11 C2.68 11 1.36 11 0 11 C-0.84098656 6.98195309 -1.05404945 3.98196457 0 0 Z " fill="#D2262D" transform="translate(356,334)"/>
<path d="M0 0 C0.66 0.33 1.32 0.66 2 1 C1.25 3.4375 1.25 3.4375 0 6 C-2.0625 6.6875 -2.0625 6.6875 -4 7 C-4.33 7.66 -4.66 8.32 -5 9 C-5.99 9.33 -6.98 9.66 -8 10 C-8.99 11.485 -8.99 11.485 -10 13 C-10.66 12.67 -11.32 12.34 -12 12 C-8.27653164 7.57905197 -4.70478962 3.42166518 0 0 Z " fill="#DA5557" transform="translate(113,97)"/>
<path d="M0 0 C4.56454251 0.54339792 7.9728176 1.79463821 12 4 C11.67 4.66 11.34 5.32 11 6 C9.35 5.67 7.7 5.34 6 5 C6 4.34 6 3.68 6 3 C5.21625 3.495 4.4325 3.99 3.625 4.5 C1 6 1 6 -1 6 C-0.67 4.02 -0.34 2.04 0 0 Z " fill="#D42A2C" transform="translate(366,88)"/>
<path d="M0 0 C1.98 0 3.96 0 6 0 C5.67 0.99 5.34 1.98 5 3 C5.99 2.67 6.98 2.34 8 2 C8 3.32 8 4.64 8 6 C5.69 6 3.38 6 1 6 C0.67 4.02 0.34 2.04 0 0 Z " fill="#DC2222" transform="translate(312,346)"/>
<path d="M0 0 C0.33 0.66 0.66 1.32 1 2 C0.67 2.66 0.34 3.32 0 4 C-1.65 4 -3.3 4 -5 4 C-5.04125 4.61875 -5.0825 5.2375 -5.125 5.875 C-5.558125 6.926875 -5.558125 6.926875 -6 8 C-8.9375 9.1875 -8.9375 9.1875 -12 10 C-12.99 10.495 -12.99 10.495 -14 11 C-14.66 10.34 -15.32 9.68 -16 9 C-15.01 9 -14.02 9 -13 9 C-13 8.34 -13 7.68 -13 7 C-11.20856793 6.0204042 -9.41684696 5.0413367 -7.625 4.0625 C-6.62726563 3.51722656 -5.62953125 2.97195313 -4.6015625 2.41015625 C-3.07929654 1.5850241 -1.54871217 0.77435609 0 0 Z " fill="#D6484A" transform="translate(248,263)"/>
<path d="M0 0 C1.98 0.66 3.96 1.32 6 2 C3.86099367 4.33285378 1.83344647 5.7868759 -1 7.1875 C-1.680625 7.53167969 -2.36125 7.87585938 -3.0625 8.23046875 C-5 9 -5 9 -8 9 C-8 8.34 -8 7.68 -8 7 C-6.68 7 -5.36 7 -4 7 C-4 6.34 -4 5.68 -4 5 C-2.68 5 -1.36 5 0 5 C0 3.35 0 1.7 0 0 Z " fill="#D34442" transform="translate(378,402)"/>
<path d="M0 0 C0.66 0 1.32 0 2 0 C2.33 0.99 2.66 1.98 3 3 C3.66 3.33 4.32 3.66 5 4 C6.3749149 6.90259811 7 8.76138705 7 12 C3.7 12 0.4 12 -3 12 C-2.67 10.68 -2.34 9.36 -2 8 C-2 8.99 -2 9.98 -2 11 C1.465 10.505 1.465 10.505 5 10 C4.6390625 9.52949219 4.278125 9.05898438 3.90625 8.57421875 C3.21015625 7.64029297 3.21015625 7.64029297 2.5 6.6875 C1.80390625 5.76517578 1.80390625 5.76517578 1.09375 4.82421875 C0 3 0 3 0 0 Z " fill="#D24548" transform="translate(211,349)"/>
<path d="M0 0 C0 2.64 0 5.28 0 8 C-0.66 7.67 -1.32 7.34 -2 7 C-2 5.35 -2 3.7 -2 2 C-6.95 2 -11.9 2 -17 2 C-17 1.67 -17 1.34 -17 1 C-15.95199219 0.90912109 -15.95199219 0.90912109 -14.8828125 0.81640625 C-13.97273438 0.73261719 -13.06265625 0.64882813 -12.125 0.5625 C-11.22007812 0.48128906 -10.31515625 0.40007812 -9.3828125 0.31640625 C-2.51470588 -0.59558824 -2.51470588 -0.59558824 0 0 Z " fill="#D44345" transform="translate(329,352)"/>
<path d="M0 0 C0.33 0.66 0.66 1.32 1 2 C0.34 2 -0.32 2 -1 2 C-1 2.66 -1 3.32 -1 4 C-10.22551253 9.55580866 -10.22551253 9.55580866 -16 10 C-13.50800908 7.17855943 -10.74756021 5.62919969 -7.4375 3.875 C-6.46683594 3.35679687 -5.49617188 2.83859375 -4.49609375 2.3046875 C-3.00355898 1.52455196 -1.50632573 0.75316286 0 0 Z " fill="#D35456" transform="translate(296,235)"/>
<path d="M0 0 C0.33 0.66 0.66 1.32 1 2 C-0.375 3.5 -0.375 3.5 -2 5 C-2.66 5 -3.32 5 -4 5 C-4.33 6.32 -4.66 7.64 -5 9 C-6.32 8.67 -7.64 8.34 -9 8 C-8.4375 5.6875 -8.4375 5.6875 -7 3 C-4.72037377 1.65223022 -2.51912228 0.88635784 0 0 Z " fill="#D72B2E" transform="translate(122,93)"/>
<path d="M0 0 C2.31 0 4.62 0 7 0 C7 0.33 7 0.66 7 1 C5.02 1 3.04 1 1 1 C1.2165625 1.83144531 1.433125 2.66289062 1.65625 3.51953125 C1.9346875 4.60621094 2.213125 5.69289063 2.5 6.8125 C2.7784375 7.89144531 3.056875 8.97039062 3.34375 10.08203125 C4 13 4 13 4 16 C3.34 16 2.68 16 2 16 C0.24836544 12.22777911 -0.22490027 9.333361 -0.125 5.1875 C-0.10695313 4.21167969 -0.08890625 3.23585938 -0.0703125 2.23046875 C-0.04710937 1.49441406 -0.02390625 0.75835937 0 0 Z " fill="#D85B5D" transform="translate(333,323)"/>
<path d="M0 0 C2 1 2 1 2.9375 2.9375 C3.95345922 5.31971493 3.95345922 5.31971493 7 7 C9.27912938 7.45394552 9.27912938 7.45394552 11.6875 7.625 C12.89986328 7.73714844 12.89986328 7.73714844 14.13671875 7.8515625 C14.75160156 7.90054687 15.36648437 7.94953125 16 8 C16 8.33 16 8.66 16 9 C12.7 9.33 9.4 9.66 6 10 C5.67 9.01 5.34 8.02 5 7 C3.35 6.67 1.7 6.34 0 6 C0 4.02 0 2.04 0 0 Z " fill="#DB6668" transform="translate(191,279)"/>
<path d="M0 0 C1.32 0.33 2.64 0.66 4 1 C3.01 2.98 2.02 4.96 1 7 C0.34 7 -0.32 7 -1 7 C-1.66 8.98 -2.32 10.96 -3 13 C-3.33 13 -3.66 13 -4 13 C-4 11.02 -4 9.04 -4 7 C-2.68 6.67 -1.36 6.34 0 6 C0 5.34 0 4.68 0 4 C-0.66 3.67 -1.32 3.34 -2 3 C-1.34 2.01 -0.68 1.02 0 0 Z " fill="#D64B4D" transform="translate(190,346)"/>
<path d="M0 0 C0.33 0 0.66 0 1 0 C1 1.65 1 3.3 1 5 C2.32 5 3.64 5 5 5 C5.33 3.68 5.66 2.36 6 1 C6.8125 2.6875 6.8125 2.6875 7 5 C4.5625 7.75 4.5625 7.75 2 10 C0.68 7.36 -0.64 4.72 -2 2 C-1.34 2 -0.68 2 0 2 C0 1.34 0 0.68 0 0 Z " fill="#D45A57" transform="translate(198,327)"/>
<path d="M0 0 C1.32 1.32 2.64 2.64 4 4 C3.34 4.66 2.68 5.32 2 6 C1.69324768 8.89967757 1.48826629 11.71783178 1.375 14.625 C1.33632812 15.42679687 1.29765625 16.22859375 1.2578125 17.0546875 C1.16346069 19.03607556 1.08063785 21.01800645 1 23 C0.67 23 0.34 23 0 23 C0 15.41 0 7.82 0 0 Z " fill="#C42C2E" transform="translate(128,336)"/>
<path d="M0 0 C1.65 0 3.3 0 5 0 C4.67 1.65 4.34 3.3 4 5 C4.66 5 5.32 5 6 5 C6 5.66 6 6.32 6 7 C5.236875 6.690625 4.47375 6.38125 3.6875 6.0625 C1.81210323 5.32106407 -0.08684652 4.63771783 -2 4 C-2 3.34 -2 2.68 -2 2 C-2.99 1.67 -3.98 1.34 -5 1 C-3.35 1 -1.7 1 0 1 C0 0.67 0 0.34 0 0 Z " fill="#CE3E3F" transform="translate(272,179)"/>
<path d="M0 0 C0.33 0 0.66 0 1 0 C1.71033431 5.52967941 2.30267176 10.49983036 1 16 C0.34 15.67 -0.32 15.34 -1 15 C-1.10251672 9.87416389 -1.03590199 5.05002222 0 0 Z " fill="#D94F4E" transform="translate(87,139)"/>
<path d="M0 0 C0.99 0.495 0.99 0.495 2 1 C2 2.98 2 4.96 2 7 C2.99 7 3.98 7 5 7 C4.67 8.65 4.34 10.3 4 12 C3.34 12 2.68 12 2 12 C0.00214565 7.8794254 -0.17835515 4.54805635 0 0 Z " fill="#CD5A5B" transform="translate(365,337)"/>
<path d="M0 0 C0.33 0 0.66 0 1 0 C1 1.65 1 3.3 1 5 C1.66 5.33 2.32 5.66 3 6 C4.0409066 7.64142963 5.04504326 9.30712215 6 11 C5.01 11 4.02 11 3 11 C-1.09628009 6.10722101 -1.09628009 6.10722101 -0.75 2.125 C-0.5025 1.42375 -0.255 0.7225 0 0 Z " fill="#D76C70" transform="translate(206,338)"/>
<path d="M0 0 C0.66 0 1.32 0 2 0 C2.66 1.65 3.32 3.3 4 5 C2.35 5.66 0.7 6.32 -1 7 C-1.66 6.34 -2.32 5.68 -3 5 C-1.625 2.5 -1.625 2.5 0 0 Z " fill="#DF3032" transform="translate(261,170)"/>
<path d="M0 0 C1.32 0.33 2.64 0.66 4 1 C2.95125002 3.62187494 2.35068687 4.79371361 -0.125 6.25 C-0.74375 6.4975 -1.3625 6.745 -2 7 C-2 5.68 -2 4.36 -2 3 C-1.34 2.67 -0.68 2.34 0 2 C0 1.34 0 0.68 0 0 Z " fill="#D13D40" transform="translate(391,393)"/>
<path d="M0 0 C1.32 0.33 2.64 0.66 4 1 C2.25 7.75 2.25 7.75 0 10 C0 6.7 0 3.4 0 0 Z " fill="#DD272A" transform="translate(129,340)"/>
<path d="M0 0 C0.66 0 1.32 0 2 0 C2.19622241 4.21878192 1.80230168 7.17010894 0 11 C-0.66 11 -1.32 11 -2 11 C-2 9.35 -2 7.7 -2 6 C-1.34 6 -0.68 6 0 6 C0 4.02 0 2.04 0 0 Z " fill="#BE4641" transform="translate(347,339)"/>
<path d="M0 0 C2 3 2 3 1.625 5.1875 C1.41875 5.785625 1.2125 6.38375 1 7 C-0.32 7.33 -1.64 7.66 -3 8 C-2.37240135 5.07120629 -1.41377341 2.63904371 0 0 Z " fill="#CE262C" transform="translate(275,352)"/>
<path d="M0 0 C1.45792884 -0.05399736 2.91642712 -0.09279177 4.375 -0.125 C5.18710938 -0.14820313 5.99921875 -0.17140625 6.8359375 -0.1953125 C9 0 9 0 11 2 C11.125 4.625 11.125 4.625 11 7 C9.62437146 5.71034824 8.29233607 4.37310707 7 3 C7 2.34 7 1.68 7 1 C4.69 1 2.38 1 0 1 C0 0.67 0 0.34 0 0 Z " fill="#DE5A5F" transform="translate(121,323)"/>
<path d="M0 0 C6.15234375 -0.09765625 6.15234375 -0.09765625 8 0 C9 1 9 1 9.09765625 2.84765625 C9.04882812 5.92382812 9.04882812 5.92382812 9 9 C7.25372522 6.38058783 6.61277612 4.96175123 6 2 C4.02 2 2.04 2 0 2 C0 1.34 0 0.68 0 0 Z " fill="#E1666D" transform="translate(354,323)"/>
<path d="M0 0 C1.43836751 0.11458693 2.87570966 0.24209116 4.3125 0.375 C5.51326172 0.47941406 5.51326172 0.47941406 6.73828125 0.5859375 C9 1 9 1 12 3 C7.545 3.495 7.545 3.495 3 4 C3 3.34 3 2.68 3 2 C2.01 2 1.02 2 0 2 C0 1.34 0 0.68 0 0 Z " fill="#D25955" transform="translate(354,85)"/>
<path d="M0 0 C1.65 0 3.3 0 5 0 C5 3 5 3 3 5.1875 C2.34 5.785625 1.68 6.38375 1 7 C0.67 4.69 0.34 2.38 0 0 Z " fill="#D63B3D" transform="translate(395,387)"/>
<path d="M0 0 C1.98362069 2.91708924 1.9876191 4.12380904 1.625 7.75 C1.41875 8.8225 1.2125 9.895 1 11 C-0.32 9.68 -1.64 8.36 -3 7 C-2.01 6.67 -1.02 6.34 0 6 C0 4.02 0 2.04 0 0 Z " fill="#D05560" transform="translate(143,337)"/>
<path d="M0 0 C1.65 0.33 3.3 0.66 5 1 C4.34 2.32 3.68 3.64 3 5 C1.68 4.67 0.36 4.34 -1 4 C-0.67 2.68 -0.34 1.36 0 0 Z " fill="#E41D1D" transform="translate(184,342)"/>
<path d="M0 0 C0.33 0.99 0.66 1.98 1 3 C1.66 3 2.32 3 3 3 C3 3.66 3 4.32 3 5 C3.66 5.33 4.32 5.66 5 6 C1.98968256 6.93423645 1.13349732 7.04449911 -2 6 C-1.34 4.02 -0.68 2.04 0 0 Z " fill="#DC3131" transform="translate(127,404)"/>
<path d="M0 0 C2.21399303 3.79541663 3.00980198 7.75629421 4 12 C3.01 12.495 3.01 12.495 2 13 C0.24252386 8.49646738 -0.19294408 4.82360189 0 0 Z " fill="#D7646B" transform="translate(253,326)"/>
<path d="M0 0 C1.13643966 3.40931897 0.86747764 4.00335456 -0.4375 7.1875 C-0.72496094 7.90292969 -1.01242187 8.61835938 -1.30859375 9.35546875 C-1.53675781 9.89816406 -1.76492188 10.44085938 -2 11 C-4 8 -4 8 -4 5 C-2.5625 3.4375 -2.5625 3.4375 -1 2 C-0.67 1.34 -0.34 0.68 0 0 Z " fill="#E06261" transform="translate(410,366)"/>
<path d="M0 0 C1.64350079 3.28700157 2.41321669 5.47930015 3 9 C1.68 9.33 0.36 9.66 -1 10 C-0.67 6.7 -0.34 3.4 0 0 Z " fill="#D3484B" transform="translate(261,350)"/>
<path d="M0 0 C0.99 0.33 1.98 0.66 3 1 C2.67 1.99 2.34 2.98 2 4 C2.99 4 3.98 4 5 4 C4.67 5.65 4.34 7.3 4 9 C1.47740939 7.02579865 1.0070192 6.03254358 0.3125 2.8125 C0.209375 1.884375 0.10625 0.95625 0 0 Z " fill="#C54D4E" transform="translate(265,343)"/>
<path d="M0 0 C2.64 0 5.28 0 8 0 C8 0.33 8 0.66 8 1 C5.69 1 3.38 1 1 1 C1 1.66 1 2.32 1 3 C1.66 3 2.32 3 3 3 C3.33 4.32 3.66 5.64 4 7 C3.01 6.67 2.02 6.34 1 6 C0.67 4.02 0.34 2.04 0 0 Z " fill="#DC6469" transform="translate(186,323)"/>
<path d="M0 0 C0.33 0.66 0.66 1.32 1 2 C0.01 2.99 -0.98 3.98 -2 5 C-2.99 4.67 -3.98 4.34 -5 4 C-5 4.66 -5 5.32 -5 6 C-6.32 5.67 -7.64 5.34 -9 5 C-6.03 3.35 -3.06 1.7 0 0 Z " fill="#D0484C" transform="translate(231,273)"/>
<path d="M0 0 C2.31 0.33 4.62 0.66 7 1 C7 1.99 7 2.98 7 4 C7.66 4.33 8.32 4.66 9 5 C5.51694958 4.35499066 2.93797836 2.95865224 0 1 C0 0.67 0 0.34 0 0 Z " fill="#DA2D31" transform="translate(311,205)"/>
<path d="M0 0 C0.99 0 1.98 0 3 0 C3.33 2.31 3.66 4.62 4 7 C3.01 7 2.02 7 1 7 C0.67 4.69 0.34 2.38 0 0 Z " fill="#DB1C20" transform="translate(366,337)"/>
<path d="M0 0 C0.99 0.33 1.98 0.66 3 1 C3 2.65 3 4.3 3 6 C1.68 6.33 0.36 6.66 -1 7 C-0.67 4.69 -0.34 2.38 0 0 Z " fill="#C86465" transform="translate(356,334)"/>
<path d="M0 0 C1.625 1.625 1.625 1.625 3 4 C2.1875 7.25 2.1875 7.25 1 10 C0.34 9.67 -0.32 9.34 -1 9 C-1 8.34 -1 7.68 -1 7 C-0.34 7 0.32 7 1 7 C1 6.01 1 5.02 1 4 C0.34 4 -0.32 4 -1 4 C-0.67 2.68 -0.34 1.36 0 0 Z " fill="#CF5155" transform="translate(194,336)"/>
<path d="M0 0 C0.66 0 1.32 0 2 0 C1.53199289 4.05606165 1.12046792 7.46588679 -1 11 C-1.14285714 3.57142857 -1.14285714 3.57142857 0 0 Z " fill="#D35D5E" transform="translate(275,324)"/>
<path d="M0 0 C0.33 0.66 0.66 1.32 1 2 C0.67 2.66 0.34 3.32 0 4 C-1.65 4 -3.3 4 -5 4 C-5 4.66 -5 5.32 -5 6 C-6.32 5.67 -7.64 5.34 -9 5 C-6.03 3.35 -3.06 1.7 0 0 Z " fill="#D35655" transform="translate(248,263)"/>
<path d="M0 0 C0.99 0 1.98 0 3 0 C2.67 2.64 2.34 5.28 2 8 C1.34 8 0.68 8 0 8 C0 5.36 0 2.72 0 0 Z " fill="#DC1F21" transform="translate(345,337)"/>
<path d="M0 0 C1.32 0.33 2.64 0.66 4 1 C3.67 2.32 3.34 3.64 3 5 C2.01 5 1.02 5 0 5 C0 3.35 0 1.7 0 0 Z " fill="#C92628" transform="translate(249,324)"/>
<path d="M0 0 C2.31 0 4.62 0 7 0 C7 0.33 7 0.66 7 1 C5.02 1 3.04 1 1 1 C0.67 3.31 0.34 5.62 0 8 C-0.66 7.01 -1.32 6.02 -2 5 C-1.125 2.3125 -1.125 2.3125 0 0 Z " fill="#E47172" transform="translate(374,323)"/>
<path d="M0 0 C1.67542976 0.28604898 3.34385343 0.61781233 5 1 C4.34 1.66 3.68 2.32 3 3 C2.01 3 1.02 3 0 3 C0 4.98 0 6.96 0 9 C-0.33 9 -0.66 9 -1 9 C-1.09765625 2.84765625 -1.09765625 2.84765625 -1 1 C-0.67 0.67 -0.34 0.34 0 0 Z " fill="#E23239" transform="translate(181,320)"/>
<path d="M0 0 C1.32 0.66 2.64 1.32 4 2 C-0.95 3.485 -0.95 3.485 -6 5 C-3 2 -3 2 0 0 Z " fill="#D65159" transform="translate(256,258)"/>
<path d="M0 0 C1 3 1 3 1 7 C-1.475 6.01 -1.475 6.01 -4 5 C-3.34 4.67 -2.68 4.34 -2 4 C-2 3.01 -2 2.02 -2 1 C-1.34 0.67 -0.68 0.34 0 0 Z " fill="#D53638" transform="translate(282,182)"/>
<path d="M0 0 C3.465 1.485 3.465 1.485 7 3 C6.67 3.66 6.34 4.32 6 5 C4.35 4.67 2.7 4.34 1 4 C0.67 2.68 0.34 1.36 0 0 Z " fill="#D34A4E" transform="translate(371,89)"/>
<path d="M0 0 C2.31 0 4.62 0 7 0 C7 0.66 7 1.32 7 2 C4.36 2.33 1.72 2.66 -1 3 C-0.67 2.01 -0.34 1.02 0 0 Z " fill="#D05657" transform="translate(353,413)"/>
<path d="M0 0 C1.98 0 3.96 0 6 0 C5.1875 1.9375 5.1875 1.9375 4 4 C3.01 4.33 2.02 4.66 1 5 C0.67 3.35 0.34 1.7 0 0 Z " fill="#DD2B2E" transform="translate(312,346)"/>
<path d="M0 0 C0.66 0 1.32 0 2 0 C2.33 2.31 2.66 4.62 3 7 C2.01 7 1.02 7 0 7 C0 4.69 0 2.38 0 0 Z " fill="#DA1E23" transform="translate(267,340)"/>
<path d="M0 0 C-0.33 1.98 -0.66 3.96 -1 6 C-1.33 6 -1.66 6 -2 6 C-2 4.35 -2 2.7 -2 1 C-4.31 1 -6.62 1 -9 1 C-9 0.67 -9 0.34 -9 0 C-2.25 -1.125 -2.25 -1.125 0 0 Z " fill="#CA181C" transform="translate(286,322)"/>
<path d="M0 0 C0.66 0.33 1.32 0.66 2 1 C2 3.31 2 5.62 2 8 C0.35 6.35 -1.3 4.7 -3 3 C-2.01 2.01 -1.02 1.02 0 0 Z " fill="#DB4442" transform="translate(220,279)"/>
<path d="M0 0 C-0.66 1.65 -1.32 3.3 -2 5 C-2.99 4.67 -3.98 4.34 -5 4 C-5 3.01 -5 2.02 -5 1 C-3 0 -3 0 0 0 Z " fill="#D72F2F" transform="translate(302,194)"/>
<path d="M0 0 C0 0.66 0 1.32 0 2 C-0.66 2 -1.32 2 -2 2 C-2.33 2.99 -2.66 3.98 -3 5 C-4.32 4.34 -5.64 3.68 -7 3 C-3.375 0 -3.375 0 0 0 Z " fill="#D5363A" transform="translate(246,162)"/>
<path d="M0 0 C0.99 0 1.98 0 3 0 C3.66 1.65 4.32 3.3 5 5 C2.69 4.01 0.38 3.02 -2 2 C-1.34 1.34 -0.68 0.68 0 0 Z " fill="#D44E52" transform="translate(211,146)"/>
<path d="M0 0 C0.99 0.33 1.98 0.66 3 1 C2.67 1.66 2.34 2.32 2 3 C1.01 3.33 0.02 3.66 -1 4 C-1.99 5.485 -1.99 5.485 -3 7 C-3.66 6.67 -4.32 6.34 -5 6 C-3.35 4.02 -1.7 2.04 0 0 Z " fill="#D46365" transform="translate(106,103)"/>
</svg>
